<svg xmlns="http://www.w3.org/2000/svg" xmlns:xlink="http://www.w3.org/1999/xlink" width="1024" zoomAndPan="magnify" viewBox="0 0 768 767.999994" height="1024" preserveAspectRatio="xMidYMid meet" version="1.0"><defs><g/><clipPath id="359138e15e"><path d="M 0.00390625 52 L 768 52 L 768 714.25 L 0.00390625 714.25 Z M 0.00390625 52 " clip-rule="nonzero"/></clipPath><clipPath id="8a5e591ee2"><path d="M 75.003906 52 L 692.996094 52 C 712.886719 52 731.964844 59.90625 746.027344 73.976562 C 760.09375 88.046875 767.996094 107.128906 767.996094 127.027344 L 767.996094 639.222656 C 767.996094 659.121094 760.09375 678.203125 746.027344 692.273438 C 731.964844 706.34375 712.886719 714.25 692.996094 714.25 L 75.003906 714.25 C 55.113281 714.25 36.035156 706.34375 21.972656 692.273438 C 7.90625 678.203125 0.00390625 659.121094 0.00390625 639.222656 L 0.00390625 127.027344 C 0.00390625 107.128906 7.90625 88.046875 21.972656 73.976562 C 36.035156 59.90625 55.113281 52 75.003906 52 " clip-rule="nonzero"/></clipPath></defs><g clip-path="url(#359138e15e)"><g clip-path="url(#8a5e591ee2)"><path stroke-linecap="butt" transform="matrix(0.75, 0, 0, 0.750292, 0.0045368, 52.000018)" fill="none" stroke-linejoin="miter" d="M 99.999164 -0.0000242933 L 923.988788 -0.0000242933 C 950.509623 -0.0000242933 975.947124 10.537539 994.697125 29.290654 C 1013.452334 48.043769 1023.988793 73.476575 1023.988793 99.997499 L 1023.988793 782.658783 C 1023.988793 809.179706 1013.452334 834.612512 994.697125 853.365627 C 975.947124 872.118742 950.509623 882.656306 923.988788 882.656306 L 99.999164 882.656306 C 73.47833 882.656306 48.040828 872.118742 29.290827 853.365627 C 10.535618 834.612512 -0.000840728 809.179706 -0.000840728 782.658783 L -0.000840728 99.997499 C -0.000840728 73.476575 10.535618 48.043769 29.290827 29.290654 C 48.040828 10.537539 73.47833 -0.0000242933 99.999164 -0.0000242933 " stroke="#bcbcbc" stroke-width="130" stroke-opacity="1" stroke-miterlimit="4"/></g></g><g fill="#bcbcbc" fill-opacity="1"><g transform="translate(84.36328, 474.41818)"><g><path d="M 123.921875 0 L 78.65625 0 L 78.65625 -123.921875 L 79.109375 -144.28125 L 79.828125 -166.546875 C 72.316406 -159.035156 67.09375 -154.109375 64.15625 -151.765625 L 39.546875 -131.984375 L 17.71875 -159.234375 L 86.71875 -214.15625 L 123.921875 -214.15625 Z M 123.921875 0 "/></g></g><g transform="translate(255.603505, 474.41818)"><g><path d="M 17.140625 -20.953125 C 17.140625 -29.148438 19.335938 -35.347656 23.734375 -39.546875 C 28.128906 -43.742188 34.523438 -45.84375 42.921875 -45.84375 C 51.023438 -45.84375 57.296875 -43.691406 61.734375 -39.390625 C 66.179688 -35.097656 68.40625 -28.953125 68.40625 -20.953125 C 68.40625 -13.234375 66.160156 -7.148438 61.671875 -2.703125 C 57.179688 1.734375 50.929688 3.953125 42.921875 3.953125 C 34.710938 3.953125 28.363281 1.78125 23.875 -2.5625 C 19.382812 -6.90625 17.140625 -13.035156 17.140625 -20.953125 Z M 17.140625 -20.953125 "/></g></g><g transform="translate(341.150376, 474.41818)"><g><path d="M 161.71875 0 L 12.015625 0 L 12.015625 -31.5 L 65.765625 -85.84375 C 81.691406 -102.144531 92.09375 -113.445312 96.96875 -119.75 C 101.851562 -126.050781 105.367188 -131.882812 107.515625 -137.25 C 109.671875 -142.625 110.75 -148.191406 110.75 -153.953125 C 110.75 -162.546875 108.378906 -168.941406 103.640625 -173.140625 C 98.898438 -177.335938 92.578125 -179.4375 84.671875 -179.4375 C 76.367188 -179.4375 68.3125 -177.53125 60.5 -173.71875 C 52.6875 -169.914062 44.53125 -164.5 36.03125 -157.46875 L 11.421875 -186.625 C 21.972656 -195.601562 30.710938 -201.945312 37.640625 -205.65625 C 44.578125 -209.375 52.144531 -212.234375 60.34375 -214.234375 C 68.550781 -216.234375 77.734375 -217.234375 87.890625 -217.234375 C 101.265625 -217.234375 113.078125 -214.789062 123.328125 -209.90625 C 133.585938 -205.03125 141.550781 -198.195312 147.21875 -189.40625 C 152.882812 -180.613281 155.71875 -170.554688 155.71875 -159.234375 C 155.71875 -149.367188 153.984375 -140.113281 150.515625 -131.46875 C 147.046875 -122.820312 141.671875 -113.957031 134.390625 -104.875 C 127.117188 -95.800781 114.304688 -82.863281 95.953125 -66.0625 L 68.40625 -40.140625 L 68.40625 -38.09375 L 161.71875 -38.09375 Z M 161.71875 0 "/></g></g><g transform="translate(512.390601, 474.41818)"><g><path d="M 89.9375 -136.8125 C 110.644531 -136.8125 127.125 -131 139.375 -119.375 C 151.632812 -107.757812 157.765625 -91.84375 157.765625 -71.625 C 157.765625 -47.707031 150.390625 -29.300781 135.640625 -16.40625 C 120.898438 -3.507812 99.804688 2.9375 72.359375 2.9375 C 48.535156 2.9375 29.300781 -0.921875 14.65625 -8.640625 L 14.65625 -47.75 C 22.363281 -43.65625 31.34375 -40.3125 41.59375 -37.71875 C 51.851562 -35.132812 61.570312 -33.84375 70.75 -33.84375 C 98.382812 -33.84375 112.203125 -45.171875 112.203125 -67.828125 C 112.203125 -89.410156 97.894531 -100.203125 69.28125 -100.203125 C 64.113281 -100.203125 58.40625 -99.6875 52.15625 -98.65625 C 45.90625 -97.632812 40.828125 -96.535156 36.921875 -95.359375 L 18.890625 -105.03125 L 26.953125 -214.15625 L 143.109375 -214.15625 L 143.109375 -175.78125 L 66.65625 -175.78125 L 62.703125 -133.734375 L 67.828125 -134.765625 C 73.785156 -136.128906 81.15625 -136.8125 89.9375 -136.8125 Z M 89.9375 -136.8125 "/></g></g></g></svg>