<svg xmlns="http://www.w3.org/2000/svg" xmlns:xlink="http://www.w3.org/1999/xlink" width="1024" zoomAndPan="magnify" viewBox="0 0 768 767.999994" height="1024" preserveAspectRatio="xMidYMid meet" version="1.0"><defs><g/><clipPath id="4dc7a4bae0"><path d="M 0.00390625 52 L 768 52 L 768 714.25 L 0.00390625 714.25 Z M 0.00390625 52 " clip-rule="nonzero"/></clipPath><clipPath id="6a9ae57a1e"><path d="M 75.003906 52 L 692.996094 52 C 712.886719 52 731.964844 59.90625 746.027344 73.976562 C 760.09375 88.046875 767.996094 107.128906 767.996094 127.027344 L 767.996094 639.222656 C 767.996094 659.121094 760.09375 678.203125 746.027344 692.273438 C 731.964844 706.34375 712.886719 714.25 692.996094 714.25 L 75.003906 714.25 C 55.113281 714.25 36.035156 706.34375 21.972656 692.273438 C 7.90625 678.203125 0.00390625 659.121094 0.00390625 639.222656 L 0.00390625 127.027344 C 0.00390625 107.128906 7.90625 88.046875 21.972656 73.976562 C 36.035156 59.90625 55.113281 52 75.003906 52 " clip-rule="nonzero"/></clipPath></defs><g clip-path="url(#4dc7a4bae0)"><g clip-path="url(#6a9ae57a1e)"><path stroke-linecap="butt" transform="matrix(0.75, 0, 0, 0.750292, 0.0045368, 52.000018)" fill="none" stroke-linejoin="miter" d="M 99.999164 -0.0000242933 L 923.988788 -0.0000242933 C 950.509623 -0.0000242933 975.947124 10.537539 994.697125 29.290654 C 1013.452334 48.043769 1023.988793 73.476575 1023.988793 99.997499 L 1023.988793 782.658783 C 1023.988793 809.179706 1013.452334 834.612512 994.697125 853.365627 C 975.947124 872.118742 950.509623 882.656306 923.988788 882.656306 L 99.999164 882.656306 C 73.47833 882.656306 48.040828 872.118742 29.290827 853.365627 C 10.535618 834.612512 -0.000840728 809.179706 -0.000840728 782.658783 L -0.000840728 99.997499 C -0.000840728 73.476575 10.535618 48.043769 29.290827 29.290654 C 48.040828 10.537539 73.47833 -0.0000242933 99.999164 -0.0000242933 " stroke="#bcbcbc" stroke-width="130" stroke-opacity="1" stroke-miterlimit="4"/></g></g><g fill="#bcbcbc" fill-opacity="1"><g transform="translate(141.14648, 514.625003)"><g><path d="M 140.625 0 L 89.265625 0 L 89.265625 -140.625 L 89.765625 -163.734375 L 90.59375 -189 C 82.0625 -180.457031 76.132812 -174.859375 72.8125 -172.203125 L 44.875 -149.765625 L 20.109375 -180.6875 L 98.40625 -243.015625 L 140.625 -243.015625 Z M 140.625 0 "/></g></g><g transform="translate(335.461322, 514.625003)"><g><path d="M 19.453125 -23.765625 C 19.453125 -33.078125 21.941406 -40.113281 26.921875 -44.875 C 31.910156 -49.644531 39.171875 -52.03125 48.703125 -52.03125 C 57.898438 -52.03125 65.019531 -49.59375 70.0625 -44.71875 C 75.101562 -39.84375 77.625 -32.859375 77.625 -23.765625 C 77.625 -15.015625 75.070312 -8.117188 69.96875 -3.078125 C 64.875 1.960938 57.785156 4.484375 48.703125 4.484375 C 39.390625 4.484375 32.1875 2.019531 27.09375 -2.90625 C 22 -7.84375 19.453125 -14.796875 19.453125 -23.765625 Z M 19.453125 -23.765625 "/></g></g><g transform="translate(432.535631, 514.625003)"><g><path d="M 102.0625 -155.25 C 125.550781 -155.25 144.25 -148.65625 158.15625 -135.46875 C 172.0625 -122.28125 179.015625 -104.21875 179.015625 -81.28125 C 179.015625 -54.132812 170.648438 -33.242188 153.921875 -18.609375 C 137.191406 -3.984375 113.253906 3.328125 82.109375 3.328125 C 55.078125 3.328125 33.25 -1.050781 16.625 -9.8125 L 16.625 -54.1875 C 25.375 -49.53125 35.566406 -45.734375 47.203125 -42.796875 C 58.835938 -39.859375 69.863281 -38.390625 80.28125 -38.390625 C 111.644531 -38.390625 127.328125 -51.242188 127.328125 -76.953125 C 127.328125 -101.453125 111.09375 -113.703125 78.625 -113.703125 C 72.75 -113.703125 66.265625 -113.117188 59.171875 -111.953125 C 52.078125 -110.785156 46.316406 -109.535156 41.890625 -108.203125 L 21.4375 -119.1875 L 30.578125 -243.015625 L 162.40625 -243.015625 L 162.40625 -199.46875 L 75.625 -199.46875 L 71.140625 -151.765625 L 76.953125 -152.921875 C 83.710938 -154.472656 92.082031 -155.25 102.0625 -155.25 Z M 102.0625 -155.25 "/></g></g></g></svg>