<svg xmlns="http://www.w3.org/2000/svg" xmlns:xlink="http://www.w3.org/1999/xlink" width="1024" zoomAndPan="magnify" viewBox="0 0 768 767.999994" height="1024" preserveAspectRatio="xMidYMid meet" version="1.0"><defs><g/><clipPath id="653a10c009"><path d="M 0.00390625 52 L 768 52 L 768 714.25 L 0.00390625 714.25 Z M 0.00390625 52 " clip-rule="nonzero"/></clipPath><clipPath id="055e10f468"><path d="M 75.003906 52 L 692.996094 52 C 712.886719 52 731.964844 59.90625 746.027344 73.976562 C 760.09375 88.046875 767.996094 107.128906 767.996094 127.027344 L 767.996094 639.222656 C 767.996094 659.121094 760.09375 678.203125 746.027344 692.273438 C 731.964844 706.34375 712.886719 714.25 692.996094 714.25 L 75.003906 714.25 C 55.113281 714.25 36.035156 706.34375 21.972656 692.273438 C 7.90625 678.203125 0.00390625 659.121094 0.00390625 639.222656 L 0.00390625 127.027344 C 0.00390625 107.128906 7.90625 88.046875 21.972656 73.976562 C 36.035156 59.90625 55.113281 52 75.003906 52 " clip-rule="nonzero"/></clipPath></defs><g clip-path="url(#653a10c009)"><g clip-path="url(#055e10f468)"><path stroke-linecap="butt" transform="matrix(0.75, 0, 0, 0.750292, 0.0045368, 52.000018)" fill="none" stroke-linejoin="miter" d="M 99.999164 -0.0000242933 L 923.988788 -0.0000242933 C 950.509623 -0.0000242933 975.947124 10.537539 994.697125 29.290654 C 1013.452334 48.043769 1023.988793 73.476575 1023.988793 99.997499 L 1023.988793 782.658783 C 1023.988793 809.179706 1013.452334 834.612512 994.697125 853.365627 C 975.947124 872.118742 950.509623 882.656306 923.988788 882.656306 L 99.999164 882.656306 C 73.47833 882.656306 48.040828 872.118742 29.290827 853.365627 C 10.535618 834.612512 -0.000840728 809.179706 -0.000840728 782.658783 L -0.000840728 99.997499 C -0.000840728 73.476575 10.535618 48.043769 29.290827 29.290654 C 48.040828 10.537539 73.47833 -0.0000242933 99.999164 -0.0000242933 " stroke="#bcbcbc" stroke-width="130" stroke-opacity="1" stroke-miterlimit="4"/></g></g><g fill="#bcbcbc" fill-opacity="1"><g transform="translate(188.437494, 514.625003)"><g><path d="M 140.625 0 L 89.265625 0 L 89.265625 -140.625 L 89.765625 -163.734375 L 90.59375 -189 C 82.0625 -180.457031 76.132812 -174.859375 72.8125 -172.203125 L 44.875 -149.765625 L 20.109375 -180.6875 L 98.40625 -243.015625 L 140.625 -243.015625 Z M 140.625 0 "/></g></g><g transform="translate(382.752335, 514.625003)"><g><path d="M 64.65625 -94.90625 L 4.828125 -185.828125 L 62.328125 -185.828125 L 98.40625 -126.65625 L 134.8125 -185.828125 L 192.3125 -185.828125 L 131.8125 -94.90625 L 195.140625 0 L 137.46875 0 L 98.40625 -63.65625 L 59.171875 0 L 1.65625 0 Z M 64.65625 -94.90625 "/></g></g></g></svg>