<svg xmlns="http://www.w3.org/2000/svg" xmlns:xlink="http://www.w3.org/1999/xlink" width="1024" zoomAndPan="magnify" viewBox="0 0 768 767.999994" height="1024" preserveAspectRatio="xMidYMid meet" version="1.0"><path fill="#bcbcbc" d="M 384 0 C 171.929688 0 0 171.929688 0 384 C 0 596.070312 171.929688 768 384 768 C 596.070312 768 768 596.085938 768 384 C 768 171.914062 596.070312 0 384 0 Z M 426.539062 582.089844 C 426.539062 605.578125 407.488281 624.628906 384 624.628906 C 360.511719 624.628906 341.460938 605.578125 341.460938 582.089844 L 341.460938 313.484375 C 341.460938 289.996094 360.511719 270.945312 384 270.945312 C 407.488281 270.945312 426.539062 289.996094 426.539062 313.484375 Z M 426.421875 202.183594 C 424.800781 211.320312 416.519531 219.601562 407.386719 221.21875 C 401.851562 222.136719 394.304688 223.003906 384 223.019531 C 373.710938 223.019531 366.164062 222.148438 360.613281 221.21875 C 351.480469 219.601562 343.199219 211.320312 341.578125 202.183594 C 340.664062 196.648438 339.796875 189.105469 339.78125 178.800781 C 339.78125 168.511719 340.648438 160.964844 341.578125 155.414062 C 343.199219 146.28125 351.480469 138 360.613281 136.378906 C 366.148438 135.464844 373.695312 134.59375 384 134.578125 C 394.289062 134.578125 401.835938 135.449219 407.386719 136.378906 C 416.519531 138 424.800781 146.28125 426.421875 155.414062 C 427.335938 160.949219 428.203125 168.496094 428.21875 178.800781 C 428.21875 189.089844 427.351562 196.636719 426.421875 202.183594 Z M 426.421875 202.183594 " fill-opacity="1" fill-rule="nonzero"/></svg>